<?xml version="1.0" standalone="no"?>
<!DOCTYPE svg PUBLIC "-//W3C//DTD SVG 20010904//EN"
 "http://www.w3.org/TR/2001/REC-SVG-20010904/DTD/svg10.dtd">
<svg version="1.0" xmlns="http://www.w3.org/2000/svg"
 width="1024.000000pt" height="1024.000000pt" viewBox="0 0 1024.000000 1024.000000"
 preserveAspectRatio="xMidYMid meet">

<g transform="translate(0.000000,1024.000000) scale(0.100000,-0.100000)"
fill="#000000" stroke="none">
<path d="M0 5120 l0 -5120 5120 0 5120 0 0 5120 0 5120 -5120 0 -5120 0 0
-5120z m7007 3842 c107 -24 223 -71 308 -127 33 -21 107 -87 165 -145 115
-115 165 -194 215 -343 24 -71 26 -96 31 -285 4 -143 9 -209 17 -214 9 -6 9
-8 0 -8 -10 0 -13 -196 -13 -917 -2 -2687 -10 -4710 -20 -4743 -6 -19 -20 -69
-31 -110 -75 -290 -272 -517 -540 -623 -156 -62 -138 -60 -729 -67 -300 -3
-1110 -5 -1800 -3 -1365 2 -1305 -1 -1456 58 -118 46 -241 115 -265 148 -3 5
-10 7 -15 5 -4 -1 -40 36 -79 84 -77 95 -98 118 -94 103 2 -5 -1 -21 -5 -34
-8 -24 -9 -24 -33 15 -76 123 -122 253 -143 406 -8 59 -13 563 -15 1728 -2
1195 -6 1645 -14 1648 -6 2 -11 -9 -11 -26 0 -37 -22 -47 -51 -24 -21 18 -21
20 -20 402 1 272 5 388 13 397 6 8 25 13 42 11 29 -3 31 -1 34 36 4 42 -15 47
-33 8 -11 -26 -15 -27 -41 -8 -18 14 -19 28 -17 361 2 312 4 349 19 366 21 23
32 24 56 2 17 -15 18 -12 20 78 1 52 2 290 3 529 1 471 5 518 60 679 67 199
221 385 416 502 130 78 247 114 414 129 50 4 862 6 1805 5 1687 -2 1717 -3
1807 -23z"/>
<path d="M3335 8893 c-217 -48 -323 -99 -452 -216 -98 -90 -163 -187 -220
-327 -73 -182 -67 111 -71 -3135 -2 -1998 0 -2949 8 -3012 18 -163 88 -337
186 -465 102 -131 188 -197 351 -264 169 -70 26 -66 1993 -64 1933 1 1828 -2
1983 58 193 75 350 209 449 382 28 50 78 183 104 275 15 55 16 302 15 3005 -1
1857 -5 2968 -11 3007 -52 325 -245 578 -533 700 -157 66 -65 63 -2016 62
-971 -1 -1775 -3 -1786 -6z m479 -285 c7 -13 16 -47 19 -76 12 -108 84 -213
177 -256 45 -21 50 -21 1117 -24 1061 -2 1072 -2 1126 18 103 39 169 130 189
259 16 103 10 101 227 101 221 0 289 -12 401 -70 134 -70 231 -185 288 -342
l27 -73 3 -2953 c2 -3276 8 -3023 -65 -3171 -28 -56 -58 -97 -118 -156 -90
-91 -160 -132 -275 -164 -74 -21 -85 -21 -1795 -21 -1890 0 -1780 -3 -1910 61
-143 70 -259 204 -312 362 l-28 82 -3 2950 c-2 2697 -1 2956 14 3025 50 229
249 421 477 459 29 5 136 9 239 10 184 1 188 1 202 -21z"/>
<path d="M6660 8282 c-66 -36 -66 -112 0 -144 29 -15 63 -18 210 -18 152 0
180 2 210 19 45 24 59 60 37 95 -34 52 -67 60 -252 64 -153 3 -174 1 -205 -16z"/>
<path d="M3224 8235 c-31 -31 -28 -61 7 -88 21 -15 31 -17 48 -8 48 26 52 88
6 109 -34 16 -32 16 -61 -13z"/>
<path d="M3396 8234 c-38 -38 16 -120 63 -95 33 18 44 47 29 79 -16 33 -66 42
-92 16z"/>
<path d="M3576 8228 c-22 -31 -20 -51 9 -78 21 -20 28 -22 50 -12 14 7 30 23
37 36 26 58 -60 106 -96 54z"/>
<path d="M4012 7767 l-34 -12 1 -506 2 -506 -40 -11 c-37 -12 -111 -79 -111
-102 0 -6 -4 -10 -10 -10 -7 0 -10 181 -10 523 l0 524 -23 21 c-13 12 -26 22
-30 22 -8 0 -5 -43 4 -50 4 -3 3 -14 -2 -25 -6 -17 -8 -17 -8 -2 -1 17 -21 25
-21 8 0 -5 -3 -17 -6 -26 -4 -10 -2 -15 7 -13 9 2 13 -5 11 -19 -3 -18 1 -22
15 -17 16 5 16 4 2 -5 -13 -8 -27 -6 -55 6 -56 25 -235 24 -284 -1 -48 -25
-70 -46 -70 -67 0 -29 34 -31 102 -8 76 26 171 22 243 -10 40 -18 45 -23 36
-39 -11 -20 -4 -65 8 -57 4 2 8 -2 8 -10 0 -8 -1 -15 -3 -15 -1 0 -31 7 -65
16 -81 21 -219 15 -269 -10 -58 -30 -71 -46 -59 -68 12 -22 21 -21 124 8 49
14 71 15 120 7 59 -10 170 -51 161 -60 -2 -3 -13 0 -23 6 -15 8 -20 7 -20 -4
0 -8 5 -11 10 -8 6 4 8 -3 5 -15 -4 -12 -3 -22 2 -22 4 0 10 -11 12 -25 6 -30
7 -29 -40 -9 -59 25 -181 30 -256 10 -75 -21 -117 -56 -96 -81 16 -19 48 -19
93 0 69 29 231 11 283 -31 10 -9 14 -13 8 -10 -14 7 -38 -19 -30 -33 4 -5 2
-12 -4 -16 -6 -4 -8 -10 -5 -15 3 -4 -14 -3 -38 2 -73 17 -206 6 -262 -22 -55
-28 -61 -38 -41 -65 13 -18 15 -18 91 4 60 18 88 22 133 16 58 -7 155 -46 134
-53 -7 -2 -12 -10 -12 -18 0 -9 -4 -12 -10 -9 -5 3 -7 0 -4 -8 2 -7 0 -26 -5
-40 -7 -19 -7 -27 0 -27 6 0 7 -5 3 -11 -3 -6 0 -16 7 -21 11 -7 9 -8 -5 -4
-45 15 -145 23 -198 16 -31 -5 -92 -24 -136 -44 -50 -23 -95 -36 -121 -36
l-41 0 0 -47 c1 -49 9 -71 45 -114 37 -43 109 -94 137 -95 15 0 33 -5 40 -11
21 -17 58 -26 58 -14 0 6 7 11 16 11 8 0 13 -4 10 -8 -3 -5 1 -9 9 -9 8 0 12
4 9 9 -3 4 0 8 5 8 6 0 11 -4 11 -10 0 -5 7 -10 16 -10 8 0 13 4 10 8 -2 4 4
8 15 8 12 0 18 -5 15 -13 -6 -16 10 -17 20 -2 3 6 15 9 25 6 11 -3 17 -1 13 4
-8 13 10 11 25 -3 11 -11 12 -10 6 1 -6 10 -4 12 6 5 18 -12 89 -12 81 0 -3 5
3 6 14 3 18 -7 18 -7 0 8 -11 8 -15 15 -10 15 6 0 19 -7 30 -15 10 -8 29 -15
40 -15 12 0 27 -6 33 -14 6 -7 22 -11 36 -8 16 3 25 0 25 -8 0 -10 3 -10 15 0
9 7 27 10 45 7 16 -4 32 -2 36 4 4 6 11 5 22 -3 13 -11 15 -10 9 5 -5 14 -3
16 11 9 16 -9 72 -8 117 1 11 3 25 0 32 -5 15 -12 36 -1 27 14 -4 6 2 6 15 -1
18 -10 20 -9 14 6 -6 15 -4 16 9 6 8 -7 18 -10 22 -6 4 4 17 8 29 8 12 0 22 5
22 12 0 6 4 15 9 20 5 5 6 3 2 -4 -8 -15 3 -17 23 -4 7 5 11 13 7 19 -3 5 1
13 10 16 9 3 14 12 11 20 -3 8 2 21 12 30 20 19 31 20 31 5 0 -5 -4 -7 -10 -4
-6 3 -7 -1 -4 -10 5 -11 2 -14 -12 -8 -11 4 -15 3 -10 -5 9 -15 45 -11 39 5
-3 7 -1 13 5 13 12 0 4 38 -12 60 -9 13 -9 13 5 2 14 -10 18 -10 23 3 3 8 0
15 -6 15 -6 0 -3 9 6 19 17 18 17 20 -1 38 -13 13 -17 26 -12 39 7 19 8 19 8
0 1 -11 4 -17 7 -13 4 3 2 20 -4 36 -7 19 -7 33 -1 36 14 9 11 37 -3 29 -10
-6 -10 -4 0 7 6 7 12 20 12 29 0 13 -1 13 -10 0 -6 -9 -10 -10 -10 -3 0 6 5
15 10 18 6 3 10 17 10 31 0 14 -4 22 -10 19 -7 -4 -7 3 0 20 7 17 7 24 0 20
-6 -3 -10 3 -10 14 0 11 4 22 8 25 10 6 8 68 -2 85 -5 8 -4 16 4 21 10 6 9 9
-1 13 -10 4 -11 8 -3 14 6 4 10 24 9 43 0 19 6 44 14 55 15 18 15 19 -1 6 -16
-12 -18 -11 -16 13 1 14 7 26 13 26 5 0 4 4 -4 9 -7 5 -10 14 -7 20 4 6 3 11
-3 11 -5 0 -5 12 2 30 10 25 9 33 -3 40 -10 7 -11 10 -2 10 15 0 17 96 1 105
-6 4 -8 14 -5 22 4 9 2 21 -2 27 -5 6 -12 35 -16 65 -8 64 -24 96 -63 132 -40
38 -87 59 -144 66 l-49 6 0 -659 c-1 -582 -2 -657 -15 -640 -8 11 -15 14 -15
8 0 -7 -5 -12 -11 -12 -5 0 -7 5 -4 10 3 6 -3 10 -14 10 -10 0 -22 6 -24 13
-3 6 -6 -1 -6 -16 -1 -16 -5 -26 -11 -22 -7 4 -10 226 -10 653 l1 647 -23 2
c-13 1 -38 -3 -56 -10z m468 -1138 c0 -5 -4 -9 -8 -9 -5 0 -9 7 -9 15 0 8 4
12 9 9 4 -3 8 -9 8 -15z m-807 -176 c-13 -2 -35 -2 -50 0 -16 2 -5 4 22 4 28
0 40 -2 28 -4z"/>
<path d="M6445 7582 c-28 -6 -62 -39 -69 -68 -8 -29 16 -79 43 -94 53 -28 131
18 131 77 0 53 -53 96 -105 85z"/>
<path d="M5094 7538 c-11 -13 -26 -36 -34 -53 -8 -16 -79 -93 -158 -171 -175
-175 -205 -226 -210 -366 -7 -154 41 -264 167 -388 62 -61 194 -140 233 -140
8 0 19 -5 26 -12 9 -9 12 -9 12 0 0 9 6 9 25 0 19 -8 28 -8 41 3 13 11 18 11
21 2 3 -7 9 -13 14 -13 6 0 7 5 4 10 -9 14 9 12 24 -2 7 -7 12 -8 11 -3 -5 22
1 29 10 15 6 -9 10 -10 10 -3 0 7 10 10 24 7 14 -2 28 1 32 7 5 8 2 9 -7 4
-11 -6 -11 -5 -2 5 8 9 16 9 30 2 13 -8 22 -7 35 5 12 11 18 12 18 4 0 -7 5
-9 10 -6 6 4 8 16 4 28 -6 22 -6 22 10 2 15 -20 15 -20 16 1 0 12 10 25 26 32
15 7 22 17 18 24 -5 8 -2 9 9 5 11 -4 17 -1 17 8 0 8 4 15 10 15 5 0 7 7 4 15
-5 11 -2 13 10 9 12 -5 15 -2 9 12 -4 11 -3 15 4 11 6 -4 13 0 17 8 3 8 1 15
-3 15 -5 0 -7 9 -4 20 3 11 9 20 13 20 4 0 6 14 5 30 -1 17 1 30 6 30 11 0 6
90 -5 108 -4 7 -1 12 9 12 9 0 13 5 10 11 -4 5 -8 20 -10 32 -11 69 -26 144
-36 174 -6 19 -9 43 -6 54 3 12 1 17 -6 12 -6 -4 -8 0 -4 10 3 10 2 17 -4 17
-6 0 -5 8 2 21 8 16 8 20 -1 14 -9 -6 -9 -2 0 14 6 13 8 31 4 44 -5 12 -9 25
-10 30 -1 4 -3 10 -4 15 -1 4 -3 12 -4 17 -9 51 -20 86 -26 90 -7 4 -5 -95 4
-195 l6 -55 -146 150 c-80 83 -157 169 -171 193 -39 65 -75 78 -109 40z m106
-195 c30 -32 86 -92 127 -134 40 -42 70 -79 66 -83 -3 -3 -1 -6 5 -6 6 0 17
-10 23 -22 10 -20 10 -21 -2 -12 -11 9 -19 7 -34 -9 -17 -17 -17 -19 -3 -14
15 5 16 4 6 -13 -9 -14 -14 -16 -20 -7 -5 8 -8 5 -8 -8 0 -12 -6 -27 -12 -34
-7 -8 -8 -11 -2 -8 14 8 11 -30 -4 -45 -13 -13 -25 -2 -220 205 -56 59 -102
113 -102 120 0 16 102 127 116 127 6 0 35 -26 64 -57z m-109 -295 c224 -237
241 -257 227 -254 -7 1 -18 5 -23 8 -6 4 -17 2 -25 -4 -13 -8 -12 -9 1 -5 14
5 15 2 5 -18 -6 -13 -14 -21 -18 -18 -5 2 -5 10 -2 16 5 9 3 8 -6 0 -11 -10
-10 -17 5 -35 11 -13 13 -17 5 -10 -18 15 -34 16 -24 0 4 -6 3 -8 -3 -5 -6 4
-16 0 -23 -8 -7 -9 -8 -15 -2 -15 5 0 13 -7 16 -16 5 -14 4 -15 -7 -5 -11 9
-17 8 -27 -3 -6 -9 -9 -20 -5 -27 6 -8 2 -8 -14 0 -17 10 -20 9 -14 -5 6 -15
-1 -16 -60 -12 -186 15 -322 210 -277 397 14 58 90 161 119 161 9 0 78 -64
152 -142z m272 -122 c4 -10 1 -13 -9 -9 -15 6 -19 23 -5 23 5 0 11 -7 14 -14z
m-148 -274 c-3 -3 -11 0 -18 7 -9 10 -8 11 6 5 10 -3 15 -9 12 -12z"/>
<path d="M7098 7389 c-2 -85 -3 -269 -3 -410 l0 -256 -140 139 c-77 76 -166
156 -198 178 l-57 40 0 -42 c0 -40 5 -47 137 -180 75 -76 134 -138 130 -138
-3 0 -22 16 -42 35 -19 20 -35 31 -35 25 0 -5 -4 -10 -10 -10 -5 0 -7 8 -4 18
5 14 4 15 -5 2 -6 -9 -7 -18 -1 -24 13 -13 13 -29 0 -21 -5 3 -11 -2 -11 -12
-3 -41 -5 -46 -19 -50 -12 -4 -12 -3 -1 5 9 7 10 12 2 16 -6 4 -14 0 -17 -8
-8 -20 -51 -21 -71 -1 -8 9 -18 13 -21 10 -4 -3 0 -10 8 -15 10 -6 -71 -10
-220 -10 -129 0 -331 -2 -449 -4 -117 -3 -219 -2 -227 1 -12 4 -12 8 -2 21 12
14 11 14 -10 1 -19 -12 -22 -20 -17 -49 10 -57 51 -116 118 -170 72 -59 134
-81 235 -86 39 -1 75 -5 80 -7 4 -2 27 -3 52 -2 25 1 51 -2 58 -8 8 -6 12 -6
12 2 0 7 22 9 65 6 46 -2 63 0 59 7 -5 7 -2 8 7 2 18 -11 180 -14 173 -3 -3 5
5 5 18 1 29 -9 49 -9 67 2 10 7 12 6 6 -4 -6 -10 4 -11 51 -7 32 4 79 9 104
11 67 7 91 14 113 33 11 10 18 13 14 8 -3 -6 3 -11 13 -11 12 0 17 6 15 18 -3
12 4 20 21 24 13 3 24 12 24 19 0 7 6 16 13 18 9 4 8 8 -3 16 -11 8 -12 11 -2
11 8 0 10 5 6 12 -5 7 -2 9 7 6 11 -4 14 3 12 33 -1 22 -5 44 -8 49 -4 6 -3
10 2 9 20 -3 24 2 12 17 -7 9 -9 18 -3 22 13 10 14 43 2 65 -7 15 -7 18 2 12
9 -6 9 -3 1 13 -7 14 -8 23 -1 27 6 3 7 14 2 23 -4 9 -6 31 -5 47 5 47 5 49
-1 73 -3 13 0 22 7 22 8 0 8 3 2 8 -13 9 -14 52 -2 52 6 0 2 9 -9 21 -18 20
-18 21 1 36 15 12 16 14 3 10 -14 -5 -16 2 -15 53 1 37 5 56 12 52 5 -3 4 1
-2 10 -7 8 -10 18 -6 21 3 4 1 7 -6 7 -8 0 -9 6 -3 18 5 9 8 28 7 42 -1 14 2
30 7 37 6 8 6 25 -2 48 -6 19 -14 52 -16 72 -3 21 -8 40 -12 43 -4 3 -9 14
-10 25 -8 46 -11 19 -14 -126z m62 -673 c0 -3 -4 -8 -10 -11 -5 -3 -10 -1 -10
4 0 6 5 11 10 11 6 0 10 -2 10 -4z"/>
<path d="M6176 7449 c-27 -39 -6 -57 111 -100 32 -12 63 -26 69 -33 8 -7 10
-39 7 -95 l-6 -83 -51 6 c-201 23 -226 20 -226 -30 0 -19 7 -25 38 -32 42 -10
202 -38 275 -48 l47 -6 0 -138 c0 -120 2 -139 18 -153 10 -10 26 -17 34 -17
36 0 39 22 40 304 0 305 -1 299 62 251 18 -14 42 -25 54 -25 21 0 152 133 152
155 0 6 -9 20 -20 30 -28 26 -61 13 -99 -40 -33 -46 -57 -57 -68 -30 -8 24
-55 44 -78 34 -48 -19 -116 -9 -214 31 -112 46 -125 48 -145 19z"/>
<path d="M6830 6745 c-7 -9 -8 -15 -2 -15 5 0 12 7 16 15 3 8 4 15 2 15 -2 0
-9 -7 -16 -15z"/>
<path d="M6796 6705 c-11 -8 -15 -15 -9 -15 6 0 16 7 23 15 16 19 11 19 -14 0z"/>
<path d="M4415 6470 c-3 -5 -1 -10 4 -10 6 0 11 5 11 10 0 6 -2 10 -4 10 -3 0
-8 -4 -11 -10z"/>
<path d="M5070 6241 c-45 -14 -84 -39 -111 -68 -50 -54 -62 -81 -68 -164 l-6
-81 -50 -21 c-230 -98 -395 -287 -455 -521 -16 -64 -20 -112 -20 -245 0 -306
-20 -401 -109 -528 -60 -86 -158 -175 -182 -168 -10 3 -21 0 -25 -6 -5 -9 -2
-10 9 -6 9 3 -3 -18 -28 -48 -45 -56 -65 -105 -65 -162 0 -26 -3 -31 -20 -28
-11 2 -20 -1 -20 -6 0 -5 6 -9 13 -8 28 3 37 -2 36 -23 l0 -23 -9 23 c-5 12
-12 22 -16 22 -3 0 -3 -7 0 -16 5 -14 4 -15 -9 -4 -12 10 -15 9 -15 -6 -1 -11
-11 0 -25 27 -13 26 -49 83 -80 128 -103 151 -135 237 -135 365 0 50 -4 67
-20 81 -30 27 -68 13 -76 -30 -8 -47 4 -156 26 -227 10 -32 15 -60 11 -62 -3
-2 -28 2 -56 10 -72 19 -92 17 -110 -10 -30 -45 -9 -61 120 -91 l116 -27 39
-52 c42 -56 85 -143 95 -191 5 -26 4 -27 -4 -7 -12 26 -10 26 -49 6 -32 -16
-44 -28 -18 -18 8 3 17 1 20 -4 3 -5 -16 -10 -41 -11 -76 -2 -203 47 -303 117
-19 13 -1 -9 41 -49 42 -41 93 -83 115 -95 21 -11 48 -26 59 -32 64 -36 101
-46 188 -51 15 -1 17 -13 17 -106 0 -96 2 -105 21 -115 26 -15 69 -5 69 16 0
8 7 17 15 20 11 5 12 11 5 24 -13 24 -14 61 -1 41 5 -8 11 -9 15 -3 4 6 -2 15
-11 21 -17 10 -17 10 1 11 15 0 16 3 6 15 -7 8 -9 15 -4 15 5 0 9 15 9 34 0
19 -3 32 -7 29 -5 -2 -8 1 -8 6 0 6 4 11 10 11 5 0 8 15 7 33 -2 21 -8 31 -17
29 -10 -2 -11 0 -3 10 13 16 23 69 12 63 -4 -3 -10 -1 -14 5 -3 5 1 10 10 10
9 0 14 4 10 9 -3 5 -1 12 5 16 5 3 10 2 10 -3 0 -10 193 -160 219 -170 9 -3
25 -14 36 -24 10 -10 24 -17 29 -15 6 2 17 -2 24 -10 7 -7 22 -13 32 -13 11 0
24 -8 29 -17 6 -10 11 -12 11 -5 0 13 21 12 31 -2 4 -5 28 -9 53 -10 25 0 46
-3 46 -7 0 -3 15 -5 33 -5 44 0 85 -10 105 -26 12 -10 14 -10 8 0 -7 12 2 13
79 11 61 -1 82 -6 98 -23 9 -10 17 -15 17 -10 0 6 -5 15 -12 22 -7 7 -8 12 -4
12 4 0 31 -20 59 -45 29 -25 57 -45 63 -45 6 0 16 -11 22 -25 6 -14 19 -25 27
-25 9 0 14 -4 11 -9 -3 -4 12 -16 34 -26 22 -10 40 -22 40 -27 0 -4 6 -8 14
-8 7 0 19 -7 26 -15 7 -9 19 -14 27 -11 7 3 13 1 13 -4 0 -9 27 -20 44 -19 5
0 12 -4 16 -10 3 -7 21 -13 38 -14 19 -1 30 -7 28 -13 -3 -7 5 -9 20 -6 13 2
31 -1 39 -8 13 -11 14 -10 9 4 -3 9 -1 16 5 16 6 0 11 -4 11 -9 0 -5 12 -8 28
-6 16 1 27 8 26 18 -1 9 5 13 17 10 10 -3 16 -10 12 -16 -3 -5 -2 -7 4 -4 6 4
23 11 39 17 21 8 25 13 15 20 -9 5 -2 8 20 7 20 -1 33 2 32 9 -1 6 6 11 15 11
41 0 45 2 33 17 -10 11 -8 16 8 21 25 8 28 25 4 25 -9 0 -14 3 -10 6 3 4 19 2
36 -4 26 -9 29 -8 24 5 -5 12 -2 15 10 10 11 -4 14 -2 10 9 -3 7 -10 14 -17
14 -6 0 -4 5 4 10 9 6 18 6 24 0 6 -6 15 -10 21 -10 5 0 3 5 -5 10 -13 8 -11
11 8 16 22 6 31 24 11 24 -5 0 -7 5 -3 11 5 8 9 8 14 -1 10 -16 33 -3 24 13
-3 7 2 3 11 -8 15 -19 17 -19 26 -2 12 20 31 23 23 4 -3 -8 2 -14 11 -14 10 0
14 6 10 15 -4 12 -3 13 10 2 9 -8 15 -8 15 -2 0 7 10 8 30 2 22 -6 34 -5 44 6
11 11 16 11 19 1 4 -9 8 -8 16 3 6 8 11 11 11 6 0 -5 6 -3 14 3 11 9 17 8 29
-3 14 -14 57 -12 57 3 0 4 12 8 28 9 18 1 23 -1 14 -7 -9 -5 -4 -8 16 -7 22 1
28 4 20 13 -7 9 -3 10 21 3 17 -4 35 -11 41 -15 6 -4 7 1 3 12 -5 14 -3 15 7
6 8 -7 22 -8 41 -3 16 5 28 5 27 2 -1 -9 9 -39 25 -72 10 -20 21 -26 56 -28
41 -3 43 -2 38 19 -4 13 -2 29 4 35 6 7 12 34 15 61 8 88 10 95 34 113 23 17
63 21 76 7 4 -3 15 -2 26 4 10 5 22 8 26 5 5 -3 23 4 40 14 18 11 32 15 32 9
0 -6 7 -4 15 5 8 8 24 13 35 11 13 -2 20 2 20 11 0 8 4 13 9 10 11 -7 111 43
111 55 0 5 7 9 15 9 8 0 15 5 15 10 0 6 7 10 16 10 10 0 14 5 10 16 -3 8 -2
12 4 9 10 -6 49 33 51 52 3 30 4 34 15 41 9 6 19 25 23 44 1 5 11 25 23 45 13
23 22 60 24 93 5 81 11 133 19 153 4 10 3 17 -5 17 -6 0 -8 5 -3 13 4 6 6 21
5 33 -2 11 1 31 7 45 6 16 5 31 0 42 -7 11 -6 17 1 17 6 0 8 5 4 12 -4 7 -8
32 -9 57 -1 25 -4 53 -8 61 -16 44 -27 86 -27 106 0 13 -3 25 -7 27 -8 5 -8
-135 -1 -150 2 -4 4 -15 3 -23 -1 -8 -3 -31 -4 -50 -2 -19 -5 -29 -8 -22 -2 6
-12 12 -21 11 -11 0 -12 -2 -4 -6 6 -2 12 -9 12 -14 0 -4 -8 -5 -17 -2 -12 5
-15 2 -10 -10 4 -10 0 -17 -10 -19 -15 -3 -14 -5 3 -22 12 -13 14 -18 4 -14
-21 7 -48 -21 -31 -32 9 -5 7 -9 -8 -13 -12 -3 -21 -10 -21 -17 0 -6 5 -8 12
-4 7 4 8 3 4 -4 -4 -6 -13 -9 -20 -6 -7 3 -19 -2 -26 -10 -7 -9 -16 -14 -20
-11 -4 3 -10 -1 -13 -8 -4 -10 2 -13 21 -9 27 4 27 4 -5 -19 -24 -18 -31 -29
-27 -45 3 -12 1 -25 -5 -28 -5 -4 -8 -13 -4 -21 3 -9 -1 -23 -8 -32 -12 -15
-12 -16 4 -10 9 3 17 3 17 -2 0 -5 -10 -11 -22 -14 -12 -4 -19 -9 -15 -13 3
-4 -3 -20 -14 -35 -11 -16 -18 -33 -15 -37 3 -5 -4 -8 -16 -8 -12 1 -23 -5
-25 -12 -3 -7 1 -10 9 -7 9 4 15 0 15 -9 0 -11 -5 -12 -17 -6 -12 7 -23 1 -42
-21 -16 -18 -22 -31 -16 -36 7 -4 6 -10 -4 -17 -8 -6 -17 -18 -21 -26 -4 -12
-6 -11 -6 3 -1 22 -17 22 -30 -1 -8 -13 -11 -14 -11 -2 -1 9 -5 6 -10 -7 -7
-16 -14 -21 -27 -16 -15 6 -16 4 -6 -9 15 -18 5 -32 -12 -18 -9 8 -11 4 -8
-13 4 -21 0 -25 -27 -31 -18 -3 -48 -6 -68 -6 -34 0 -34 1 -29 34 7 43 48 131
87 184 37 52 88 78 181 94 104 17 150 65 97 102 -28 20 -51 20 -86 2 -15 -7
-42 -17 -59 -21 l-33 -7 17 44 c11 31 16 79 17 168 l1 125 -26 3 c-45 5 -56
-17 -62 -130 -7 -130 -24 -179 -105 -296 -35 -52 -83 -137 -107 -188 -24 -52
-46 -94 -48 -94 -3 0 -1 16 3 35 5 22 4 35 -2 35 -6 0 -8 7 -4 15 3 9 0 15 -9
15 -12 0 -15 14 -15 58 -1 86 -27 131 -134 236 -110 107 -163 176 -144 188 9
5 7 8 -7 8 -11 0 -15 4 -10 8 15 10 18 42 4 42 -8 0 -8 4 -1 13 7 8 7 18 2 27
-5 9 -5 19 1 26 7 8 6 14 -1 19 -6 3 -7 12 -3 18 9 15 12 47 3 42 -4 -2 -7 9
-7 25 0 18 5 27 11 24 6 -3 2 2 -8 10 -20 16 -20 16 0 31 16 13 16 14 2 9 -15
-5 -18 1 -19 37 -1 24 -1 47 0 52 7 46 -4 127 -20 137 -4 3 -10 21 -12 40 -5
38 -11 58 -32 105 -8 17 -24 61 -35 99 -66 215 -220 391 -430 492 l-80 39 0
63 c0 34 -6 78 -14 96 -18 43 -73 97 -121 120 -42 20 -137 30 -175 17z m123
-199 c9 -8 17 -28 17 -44 l0 -28 -80 0 c-44 0 -80 3 -80 6 0 3 7 21 16 39 25
53 83 65 127 27z m136 -281 c35 -12 85 -36 110 -53 59 -40 151 -128 151 -146
0 -7 -5 -10 -12 -6 -7 4 -8 3 -4 -4 4 -7 15 -12 26 -12 10 0 21 -7 24 -16 4
-11 2 -15 -7 -11 -8 3 -14 -1 -14 -10 0 -9 7 -13 18 -10 21 6 46 -40 29 -57
-7 -7 -10 -5 -10 6 0 9 -7 18 -15 22 -12 4 -13 2 -6 -12 11 -21 -2 -62 -14
-43 -4 8 -2 17 6 22 8 5 9 9 3 9 -5 0 -19 -7 -30 -15 -17 -13 -17 -14 -1 -15
9 0 17 -6 17 -14 0 -8 3 -23 7 -33 6 -16 5 -16 -10 -4 -9 7 -15 16 -13 20 3 4
-5 8 -16 8 -21 2 -21 2 1 -13 11 -8 21 -22 21 -30 0 -8 4 -12 10 -9 6 3 7 -1
4 -9 -3 -9 -15 -14 -26 -13 -12 1 -23 -3 -25 -9 -2 -7 6 -10 23 -6 19 3 25 1
20 -7 -4 -6 -12 -9 -17 -6 -5 4 -9 -1 -9 -9 0 -9 -5 -15 -12 -14 -8 2 -13 -10
-13 -29 -1 -31 6 -38 30 -33 5 1 1 -8 -9 -19 -20 -22 -36 -19 -36 6 0 12 -5
11 -20 -7 -23 -26 -26 -38 -7 -21 8 6 17 8 20 5 3 -4 -4 -15 -16 -25 -16 -13
-18 -19 -7 -19 12 0 10 -4 -4 -15 -16 -12 -17 -15 -4 -15 9 0 18 5 20 12 5 15
28 1 28 -18 0 -8 -10 -14 -25 -14 -14 0 -25 -4 -25 -10 0 -5 11 -10 24 -10 22
0 25 -4 23 -33 -2 -32 -35 -96 -36 -70 -1 6 4 15 9 18 13 8 13 45 -1 45 -5 0
-8 -4 -5 -9 4 -5 3 -16 0 -25 -5 -14 -10 -13 -28 9 -12 14 -26 25 -31 25 -6 0
-3 -5 5 -10 13 -9 13 -11 0 -21 -13 -9 -13 -10 0 -6 20 5 41 -18 34 -37 -4
-12 -2 -15 9 -11 9 4 16 -1 20 -15 5 -18 3 -19 -10 -8 -12 10 -17 9 -28 -5 -8
-11 -16 -14 -19 -8 -4 5 -2 12 3 16 12 7 3 35 -11 35 -6 0 -4 -8 3 -17 12 -15
12 -16 -4 -10 -16 6 -16 5 -1 -24 11 -23 19 -28 27 -20 14 14 27 14 27 1 0 -5
-6 -9 -12 -7 -9 1 -12 -8 -10 -27 3 -26 1 -28 -12 -17 -13 11 -16 11 -16 -3 0
-9 -5 -16 -11 -16 -5 0 -7 4 -4 10 3 6 -1 7 -10 4 -10 -4 -14 -13 -10 -23 4
-9 7 -20 8 -26 1 -5 7 -13 12 -17 6 -4 1 -8 -9 -8 -19 0 -19 -1 -2 -13 14 -11
16 -18 9 -32 -7 -12 -13 -14 -17 -6 -4 6 -2 11 4 11 6 0 8 5 5 10 -4 6 -11 8
-16 5 -5 -4 -9 0 -9 7 0 7 -9 2 -19 -12 -11 -13 -17 -28 -15 -32 5 -8 -65 -42
-79 -39 -5 1 -6 -3 -2 -9 4 -6 16 -4 32 7 24 16 26 16 39 -2 7 -10 11 -22 8
-26 -3 -5 0 -9 5 -9 6 0 11 -4 11 -10 0 -5 -9 -10 -20 -10 -26 0 -25 -15 2
-34 23 -17 23 -17 -14 -19 -17 -1 -24 5 -26 21 -2 12 -8 22 -13 22 -6 0 -8 -4
-5 -9 4 -5 0 -12 -6 -15 -10 -5 -10 -7 0 -12 6 -3 12 -10 12 -14 0 -5 -205 -9
-456 -10 l-455 -1 43 63 c50 73 60 91 77 138 29 78 33 116 41 370 8 281 12
306 65 410 35 70 154 187 232 228 141 75 330 92 472 43z m331 -362 c0 -5 -4
-9 -10 -9 -5 0 -10 7 -10 16 0 8 5 12 10 9 6 -3 10 -10 10 -16z m-70 -155 c0
-2 -9 -8 -20 -14 -15 -8 -18 -8 -14 3 4 11 34 21 34 11z m0 -92 c0 -4 -9 -8
-21 -9 -17 -2 -18 1 -9 12 12 14 30 12 30 -3z m-55 -22 c-3 -5 -1 -10 4 -10 6
0 11 -5 11 -10 0 -6 -8 -5 -20 2 -24 15 -26 28 -4 28 8 0 12 -4 9 -10z m35
-50 c0 -5 -4 -10 -10 -10 -5 0 -10 5 -10 10 0 6 5 10 10 10 6 0 10 -4 10 -10z
m10 -44 c0 -2 -7 -9 -15 -16 -13 -11 -14 -10 -9 4 5 14 24 23 24 12z m-125
-256 c3 -5 2 -10 -4 -10 -5 0 -13 5 -16 10 -3 6 -2 10 4 10 5 0 13 -4 16 -10z
m-2 -110 c-3 -11 -9 -17 -15 -14 -5 3 -4 12 3 20 16 19 18 18 12 -6z m-39 -6
c3 -8 2 -13 -3 -9 -5 3 -16 -1 -24 -10 -13 -13 -16 -13 -21 1 -3 8 -2 12 4 9
6 -3 10 -1 10 5 0 6 5 8 10 5 6 -3 10 -1 10 4 0 16 7 13 14 -5z m-24 -104 c0
-5 -7 -10 -16 -10 -8 0 -12 5 -9 10 3 6 10 10 16 10 5 0 9 -4 9 -10z m1545 0
c3 -5 1 -10 -4 -10 -6 0 -11 5 -11 10 0 6 2 10 4 10 3 0 8 -4 11 -10z m-911
-241 c42 -39 76 -75 76 -80 0 -5 -401 -9 -970 -9 -841 0 -970 2 -970 15 0 8
35 43 78 79 l77 66 816 0 817 0 76 -71z m-874 -307 c8 -23 19 -41 25 -39 5 2
15 -7 22 -21 17 -31 16 -37 -1 -23 -11 9 -15 8 -20 -4 -3 -9 -2 -13 4 -10 6 3
10 1 10 -5 0 -6 4 -8 10 -5 13 8 0 -28 -14 -37 -21 -14 -84 -8 -133 13 -76 32
-112 74 -128 147 l-7 33 109 -3 108 -3 15 -43z m441 -399 c13 -16 12 -17 -3
-4 -10 7 -18 15 -18 17 0 8 8 3 21 -13z m-101 -47 c0 -3 -4 -8 -10 -11 -5 -3
-10 -1 -10 4 0 6 5 11 10 11 6 0 10 -2 10 -4z"/>
<path d="M5545 5359 c-9 -14 -2 -20 14 -10 8 6 9 11 3 15 -6 3 -14 1 -17 -5z"/>
<path d="M5505 5300 c-3 -6 1 -7 9 -4 18 7 21 14 7 14 -6 0 -13 -4 -16 -10z"/>
<path d="M5518 5273 c7 -3 16 -2 19 1 4 3 -2 6 -13 5 -11 0 -14 -3 -6 -6z"/>
<path d="M5466 5032 c-2 -4 12 -9 32 -10 41 -3 41 2 0 12 -15 3 -29 2 -32 -2z"/>
<path d="M5396 4912 c-3 -5 1 -9 9 -9 8 0 12 4 9 9 -3 4 -7 8 -9 8 -2 0 -6 -4
-9 -8z"/>
<path d="M5437 4846 c-4 -10 -1 -13 8 -9 8 3 12 9 9 14 -7 12 -11 11 -17 -5z"/>
<path d="M5400 4830 c-13 -8 -12 -10 3 -10 9 0 17 5 17 10 0 12 -1 12 -20 0z"/>
<path d="M5380 4760 c0 -5 5 -10 11 -10 5 0 7 5 4 10 -3 6 -8 10 -11 10 -2 0
-4 -4 -4 -10z"/>
<path d="M5361 4750 c3 -24 -12 -50 -29 -50 -8 0 -13 -3 -9 -6 3 -3 14 -3 25
0 23 8 34 38 20 57 -7 11 -8 11 -7 -1z"/>
<path d="M5230 4616 c0 -2 7 -6 15 -10 8 -3 15 -1 15 4 0 6 -7 10 -15 10 -8 0
-15 -2 -15 -4z"/>
<path d="M5250 4530 c0 -5 5 -10 10 -10 6 0 10 5 10 10 0 6 -4 10 -10 10 -5 0
-10 -4 -10 -10z"/>
<path d="M4352 6214 c-18 -12 -22 -25 -22 -64 l0 -49 -51 -3 c-59 -3 -82 -25
-63 -55 8 -13 27 -19 63 -21 l51 -3 0 -49 c0 -65 30 -96 69 -71 8 5 16 32 19
65 l4 55 52 3 51 3 0 35 0 35 -52 3 -52 3 -3 51 c-4 63 -30 88 -66 62z"/>
<path d="M5870 6201 c-5 -11 -10 -38 -10 -60 l0 -40 -51 -3 c-59 -3 -82 -25
-63 -55 8 -13 27 -19 63 -21 l51 -3 0 -45 c0 -58 14 -84 45 -84 31 0 45 26 45
84 l0 46 50 0 c55 0 74 18 59 58 -7 19 -16 22 -59 22 l-50 0 0 41 c0 53 -15
79 -45 79 -14 0 -29 -8 -35 -19z"/>
<path d="M7096 6103 c-4 -16 -6 -84 -5 -153 0 -69 0 -157 0 -196 l-1 -72 -162
-4 c-90 -3 -164 -4 -164 -4 -1 1 45 82 102 181 57 98 104 190 104 202 0 29
-39 50 -66 35 -18 -9 -152 -230 -220 -361 -32 -63 -15 -78 -152 136 -89 140
-128 183 -152 168 -12 -7 21 -118 55 -185 15 -30 55 -93 89 -140 34 -47 65
-93 69 -103 5 -13 -9 -41 -46 -95 -152 -218 -161 -230 -177 -222 -8 4 -43 37
-77 73 -35 36 -63 63 -63 61 0 -14 54 -107 84 -148 l36 -46 -64 -61 c-36 -33
-87 -78 -115 -100 -28 -23 -51 -49 -51 -59 0 -36 101 -98 119 -74 7 11 63 38
74 36 4 -1 7 7 7 19 0 14 5 19 14 16 10 -4 17 4 21 25 5 19 10 26 14 19 5 -8
20 3 45 33 34 42 39 45 79 41 23 -3 61 -6 84 -7 24 -2 43 -6 43 -10 0 -4 33
-5 73 -2 107 7 139 11 146 21 3 4 15 10 26 11 11 2 28 11 38 19 13 12 17 13
17 3 0 -9 8 -6 23 8 13 12 26 20 29 16 4 -3 11 4 18 15 6 12 15 19 21 16 5 -4
9 1 9 9 0 14 5 17 26 15 10 -1 30 43 31 69 1 13 9 30 19 36 9 7 18 24 19 39 2
14 6 31 11 38 4 7 3 9 -4 6 -6 -5 -8 0 -5 13 3 11 10 20 15 20 6 0 8 14 6 30
-3 22 0 30 10 30 12 0 12 3 2 15 -10 12 -10 18 1 32 10 11 10 14 2 9 -7 -4
-13 -3 -13 3 0 5 5 13 11 16 6 4 7 14 4 24 -9 23 -11 170 -2 164 10 -6 9 5 -3
28 -8 13 -7 19 0 19 6 0 8 10 4 24 -3 12 -7 59 -9 102 -4 94 -9 124 -24 153
-15 27 -18 27 -25 -6z m-206 -544 c0 -19 -1 -19 -16 -5 -8 9 -18 16 -20 16
-11 0 -33 -28 -27 -34 4 -3 -4 -6 -16 -6 -23 0 -54 -23 -45 -33 3 -3 13 -3 22
-1 10 3 7 -1 -6 -8 -12 -8 -20 -17 -17 -20 3 -3 -2 -11 -12 -19 -9 -8 -14 -9
-11 -4 4 6 -2 16 -12 22 -16 11 -18 9 -15 -12 1 -13 -1 -24 -4 -23 -18 2 -22
-4 -11 -17 10 -12 10 -15 -1 -15 -8 0 -19 -11 -26 -25 -6 -14 -7 -25 -2 -25 5
0 9 -5 9 -11 0 -6 -9 -8 -21 -4 -16 6 -20 4 -13 -6 6 -12 5 -12 -8 -1 -13 10
-17 10 -21 -2 -4 -9 0 -19 8 -23 12 -7 11 -11 -5 -21 -17 -10 -18 -9 -13 6 3
9 -3 6 -13 -8 -10 -14 -18 -28 -17 -31 1 -4 -8 -4 -20 -1 -20 5 -21 4 -7 -13
14 -17 14 -18 -8 -6 -12 6 -26 10 -30 7 -4 -3 -14 -1 -21 3 -9 6 -6 15 12 37
13 16 65 91 116 167 l91 137 90 0 c84 0 90 -1 90 -21z m60 17 c0 -2 -11 -6
-25 -8 -14 -3 -25 -1 -25 3 0 5 11 9 25 9 14 0 25 -2 25 -4z m-200 -170 c0 -3
-4 -8 -10 -11 -5 -3 -10 -1 -10 4 0 6 5 11 10 11 6 0 10 -2 10 -4z m-117 -145
c-3 -11 -12 -22 -20 -25 -14 -6 -11 5 10 32 13 17 16 15 10 -7z"/>
<path d="M6641 5376 c-10 -12 -8 -13 8 -9 12 3 21 9 21 14 0 14 -16 11 -29 -5z"/>
<path d="M3328 6089 c-10 -5 -18 -21 -18 -34 0 -14 47 -104 105 -200 58 -96
105 -177 105 -181 0 -3 -73 -4 -162 -2 l-163 3 0 -45 0 -45 185 -3 185 -3 75
-111 c41 -61 94 -136 117 -166 l41 -56 -56 -18 c-88 -29 -196 -19 -292 24 -41
19 -91 48 -110 64 l-35 29 22 -31 c29 -40 94 -99 132 -119 17 -8 31 -19 31
-24 0 -8 78 -36 125 -45 11 -2 31 -8 45 -13 33 -12 158 -4 211 12 11 4 50 -25
115 -85 70 -65 105 -90 123 -90 31 0 45 9 49 32 5 28 -14 54 -77 103 -32 25
-73 65 -92 88 -18 23 -26 36 -16 28 15 -12 17 -11 17 3 0 9 4 16 9 16 5 0 12
9 16 19 4 13 12 18 22 14 13 -5 14 -3 4 15 -10 18 -9 22 3 22 8 0 17 14 21 31
4 17 13 33 20 35 7 3 13 17 13 31 0 14 4 28 10 32 7 4 11 18 10 31 -2 47 2 61
15 55 6 -4 5 -1 -3 7 -17 15 -26 43 -10 33 9 -6 15 17 10 40 -1 6 -4 26 -7 45
-3 19 -6 42 -7 50 -1 8 -8 28 -14 43 -7 16 -22 52 -34 80 -28 69 -34 74 -30
27 3 -26 8 -38 16 -34 6 3 -2 -6 -19 -20 -27 -24 -27 -31 0 -27 6 1 2 -5 -9
-13 -10 -8 -16 -21 -14 -28 3 -7 -1 -19 -9 -26 -7 -8 -10 -18 -7 -24 4 -6 10
-5 16 3 8 11 9 11 5 -1 -2 -8 -12 -14 -21 -14 -9 1 -16 -5 -16 -13 0 -8 4 -12
9 -9 5 3 12 -1 15 -9 4 -12 -1 -14 -27 -10 -25 4 -28 3 -14 -5 24 -15 22 -33
-3 -20 -11 6 -20 7 -20 1 0 -5 7 -11 15 -15 8 -3 15 -11 15 -18 0 -9 -3 -8
-10 2 -10 16 -10 15 -14 -32 -1 -7 -11 -19 -23 -26 -13 -7 -23 -18 -22 -25 0
-9 2 -9 6 1 2 6 9 10 14 6 5 -3 9 0 9 5 0 6 5 11 11 11 6 0 7 -5 2 -12 -4 -7
-7 -24 -6 -38 2 -24 2 -24 -5 -2 -6 21 -8 22 -27 7 -16 -12 -17 -14 -2 -9 20
7 23 -11 3 -19 -17 -7 -31 -61 -20 -79 10 -16 13 -51 4 -41 -27 29 -161 207
-188 249 l-33 52 59 82 c109 152 171 273 172 333 0 25 -2 27 -27 21 -35 -9
-51 -29 -143 -184 -114 -190 -101 -179 -137 -117 -106 177 -154 260 -172 296
-18 35 -55 72 -71 71 -3 0 -13 -5 -22 -11z m723 -362 c-6 -8 -8 -17 -4 -21 4
-4 0 -4 -10 0 -17 6 -17 7 0 20 23 17 28 18 14 1z m-144 -349 c-3 -8 -6 -5 -6
6 -1 11 2 17 5 13 3 -3 4 -12 1 -19z"/>
<path d="M7065 5700 c3 -5 8 -10 11 -10 2 0 4 5 4 10 0 6 -5 10 -11 10 -5 0
-7 -4 -4 -10z"/>
<path d="M6807 4349 c7 -7 15 -10 18 -7 3 3 -2 9 -12 12 -14 6 -15 5 -6 -5z"/>
<path d="M6790 4309 c0 -5 5 -7 10 -4 6 3 10 8 10 11 0 2 -4 4 -10 4 -5 0 -10
-5 -10 -11z"/>
<path d="M6680 4170 c0 -5 7 -7 15 -4 8 4 15 8 15 10 0 2 -7 4 -15 4 -8 0 -15
-4 -15 -10z"/>
<path d="M3310 3961 c-5 -11 -10 -33 -10 -50 0 -29 -2 -31 -38 -31 -40 0 -82
-23 -82 -45 0 -27 31 -45 76 -45 l44 0 0 -38 c0 -43 14 -62 47 -62 26 0 43 27
43 69 0 30 2 31 43 31 24 0 48 5 55 12 32 32 -4 78 -61 78 -29 0 -37 4 -37 19
0 10 -5 32 -11 50 -13 36 -52 43 -69 12z"/>
<path d="M6901 3966 c-7 -8 -15 -30 -18 -49 -5 -32 -9 -35 -46 -40 -35 -5 -67
-27 -67 -46 1 -21 25 -36 67 -40 47 -6 48 -7 53 -45 10 -77 72 -75 78 3 l3 41
43 0 c46 0 66 13 66 45 0 32 -19 45 -65 45 -41 0 -42 1 -43 36 -1 20 -7 43
-13 50 -15 18 -43 18 -58 0z"/>
<path d="M6997 3411 c3 -11 9 -19 13 -16 7 5 45 -44 43 -55 -1 -3 3 -10 8 -17
7 -7 6 -14 -1 -18 -5 -3 -10 -11 -10 -17 0 -7 6 -6 15 2 13 10 15 9 15 -11 0
-13 -7 -33 -15 -43 -8 -10 -12 -23 -9 -28 3 -5 0 -15 -6 -23 -7 -9 -8 -15 -2
-15 5 0 15 7 22 15 7 9 15 13 17 11 3 -3 -9 -18 -26 -35 -17 -17 -31 -39 -31
-50 0 -11 -9 -25 -19 -31 -25 -13 -31 -13 -31 1 0 5 4 8 9 4 12 -7 33 29 24
39 -12 11 -25 6 -20 -8 3 -8 -1 -17 -9 -20 -8 -3 -14 -13 -14 -22 0 -14 -3
-14 -15 -4 -9 7 -12 16 -7 19 13 9 23 41 12 41 -6 0 -10 -7 -10 -15 0 -7 -8
-19 -17 -24 -10 -6 -13 -11 -6 -11 7 0 10 -10 7 -26 -3 -14 1 -33 8 -43 7 -9
0 -5 -15 8 -20 18 -24 27 -15 33 12 7 3 12 -16 9 -18 -4 -26 25 -26 91 0 37
-3 69 -8 72 -14 8 -123 -34 -181 -71 -31 -19 -82 -60 -113 -91 l-58 -56 0 91
c0 100 -10 123 -55 123 -40 0 -55 -35 -55 -127 l0 -82 -54 54 c-29 29 -77 69
-107 87 -63 40 -173 83 -188 73 -6 -3 -11 -32 -11 -64 l0 -58 53 -12 c104 -23
215 -109 264 -205 42 -83 54 -163 46 -324 l-6 -143 -26 6 c-54 12 -170 78
-208 118 -22 23 -52 62 -66 86 -21 37 -25 39 -24 18 1 -14 5 -23 10 -20 4 2 7
-6 7 -17 0 -16 -5 -20 -15 -16 -9 3 -15 0 -15 -8 0 -8 7 -16 15 -20 8 -3 15 0
15 6 0 6 3 8 7 5 3 -4 -1 -15 -10 -25 -10 -10 -14 -22 -10 -26 4 -4 -1 -4 -10
0 -21 8 -20 -15 2 -32 12 -9 11 -12 -3 -17 -12 -5 -15 -13 -11 -27 6 -18 3
-20 -18 -15 -14 4 -28 2 -31 -4 -4 -6 1 -11 11 -11 15 0 16 -2 3 -10 -13 -9
-7 -14 13 -11 4 0 7 -6 7 -15 0 -11 -6 -14 -20 -9 -16 5 -19 3 -13 -12 6 -15
4 -16 -9 -5 -13 10 -17 10 -21 -2 -10 -25 10 -28 52 -7 47 24 58 39 37 47 -22
8 -20 23 2 21 17 -1 28 -47 11 -47 -5 0 0 -9 11 -20 11 -11 26 -20 34 -20 19
0 26 -23 12 -36 -9 -8 -15 -7 -24 3 -10 10 -10 13 0 13 8 0 6 5 -5 11 -9 5
-22 7 -27 4 -6 -4 -10 -3 -9 2 5 27 -2 31 -32 16 -18 -9 -28 -21 -25 -29 3 -7
1 -16 -4 -19 -5 -3 -6 -13 -3 -22 6 -15 5 -16 -9 -3 -16 14 -16 16 0 28 14 11
10 16 -10 13 -5 0 -8 4 -8 10 0 5 -4 8 -9 5 -5 -4 -12 0 -15 6 -5 10 -7 10
-12 1 -3 -7 -13 -13 -22 -13 -14 0 -14 -2 -3 -9 8 -5 20 -7 27 -4 18 7 24 -10
9 -24 -10 -10 -14 -9 -19 2 -3 8 -13 15 -22 15 -13 0 -14 -3 -5 -14 8 -10 9
-16 1 -21 -5 -3 -10 -1 -10 4 0 6 -4 11 -10 11 -5 0 -6 -8 -3 -18 4 -9 -10 1
-31 22 -34 37 -36 38 -26 12 35 -92 114 -178 214 -232 28 -15 53 -31 56 -35 3
-4 21 -8 40 -10 19 -2 40 -6 45 -10 6 -3 88 -6 182 -5 95 1 173 -3 173 -8 0
-5 7 -3 15 4 8 7 25 10 39 6 15 -4 26 -1 29 7 4 9 8 9 15 -2 6 -9 17 -11 28
-6 29 11 65 14 59 5 -3 -5 -13 -7 -23 -4 -14 5 -14 4 -2 -4 8 -6 18 -8 23 -5
10 6 111 15 142 13 35 -3 49 -1 105 10 30 7 61 17 69 23 7 6 20 12 28 13 8 2
18 6 21 10 4 4 -1 4 -10 1 -21 -7 -24 6 -5 22 10 8 17 7 27 -2 10 -10 11 -9 4
3 -12 21 -14 40 -3 40 5 0 9 -4 9 -10 0 -5 5 -10 12 -10 6 0 8 3 5 6 -3 4 3
18 13 32 15 19 17 28 9 38 -9 11 -8 18 1 29 6 8 9 18 6 24 -3 5 0 12 6 14 10
4 10 6 1 6 -7 1 -13 6 -13 12 0 6 6 9 13 6 8 -3 14 4 15 16 1 16 -1 18 -8 8
-6 -11 -9 -8 -12 10 -2 13 4 29 12 36 12 9 13 14 3 24 -14 15 -18 33 -5 25 5
-3 8 9 7 25 -1 17 -8 35 -16 40 -11 7 -10 9 6 9 17 0 17 2 5 10 -8 5 -11 10
-6 10 5 0 3 7 -4 15 -11 13 -10 14 4 9 12 -5 15 -2 10 10 -3 9 -11 16 -18 16
-6 0 -5 4 3 9 8 5 16 17 17 25 1 9 -2 13 -8 10 -7 -4 -8 5 -3 27 4 19 12 37
17 40 5 3 2 9 -7 12 -9 4 -13 3 -10 -3 10 -16 -1 -12 -15 6 -8 8 -9 14 -4 13
22 -4 23 3 10 35 -14 33 -14 34 7 31 21 -4 22 -4 3 10 -19 14 -19 15 -1 15 17
0 17 2 -4 21 -12 12 -20 24 -16 27 3 4 10 0 15 -8 8 -13 10 -12 10 3 0 9 -6
17 -12 17 -9 0 -9 3 -3 8 11 7 15 122 5 122 -3 0 -5 14 -5 30 -1 17 3 30 8 30
5 0 4 7 -3 15 -7 8 -9 15 -6 15 4 0 2 9 -4 19 -7 13 -7 22 0 26 5 3 10 11 10
16 0 6 -5 7 -11 3 -8 -5 -10 1 -5 19 3 14 2 28 -3 31 -4 3 -11 19 -14 36 -11
53 -73 174 -105 204 -27 25 -30 26 -25 7z m93 -181 c0 -5 -5 -10 -11 -10 -5 0
-7 5 -4 10 3 6 8 10 11 10 2 0 4 -4 4 -10z m-3 -112 c-3 -8 -6 -5 -6 6 -1 11
2 17 5 13 3 -3 4 -12 1 -19z m-236 -159 c-2 -173 -12 -240 -30 -210 -9 14 -31
7 -31 -10 0 -6 4 -8 9 -4 5 3 13 0 17 -6 4 -8 3 -9 -4 -5 -7 4 -12 1 -12 -8 0
-8 -4 -18 -10 -21 -5 -3 -7 0 -4 8 3 8 0 18 -7 23 -8 4 -10 3 -5 -4 4 -7 2
-20 -3 -29 -6 -10 -11 -13 -11 -8 0 13 -20 -16 -20 -30 0 -5 5 -3 10 5 8 13
11 13 22 1 10 -11 10 -12 0 -7 -7 4 -15 1 -18 -8 -3 -9 -10 -14 -14 -11 -11 7
-22 -24 -13 -37 3 -7 1 -8 -5 -4 -7 4 -12 2 -12 -4 0 -19 -46 -80 -55 -72 -4
4 -5 -1 -2 -10 4 -10 2 -18 -4 -18 -6 0 -8 -4 -5 -9 3 -5 -1 -12 -10 -15 -10
-4 -13 -2 -8 7 4 6 -3 2 -15 -10 -12 -13 -27 -23 -34 -24 -7 0 -24 -3 -39 -5
l-28 -5 -1 68 c0 37 -3 92 -5 122 -7 74 12 185 42 251 40 88 133 172 233 211
75 30 73 32 72 -122z m179 91 c0 -5 -4 -10 -9 -10 -6 0 -13 5 -16 10 -3 6 1
10 9 10 9 0 16 -4 16 -10z m-43 -56 c-3 -3 -12 -4 -19 -1 -8 3 -5 6 6 6 11 1
17 -2 13 -5z m-174 -334 c-3 -12 -8 -19 -11 -16 -5 6 5 36 12 36 2 0 2 -9 -1
-20z m-83 -115 c-7 -9 -15 -13 -19 -10 -3 3 1 10 9 15 21 14 24 12 10 -5z
m-643 -81 c-3 -3 -12 -4 -19 -1 -8 3 -5 6 6 6 11 1 17 -2 13 -5z m-30 -158
c-3 -8 1 -17 9 -20 8 -3 14 -10 14 -16 0 -6 -7 -4 -16 4 -8 9 -20 14 -25 11
-13 -9 -11 3 4 20 16 18 21 19 14 1z m-92 -63 c-5 -10 -9 -21 -9 -25 -1 -3 -5
-10 -10 -15 -5 -4 -6 -3 -3 3 4 7 0 17 -8 24 -8 7 -15 17 -15 23 0 7 4 7 12
-1 13 -13 29 -16 27 -4 -3 15 1 25 7 19 4 -3 3 -14 -1 -24z m69 2 c-12 -9 -14
-14 -6 -15 7 0 10 -5 6 -11 -4 -8 -10 -6 -17 6 -7 14 -5 21 8 32 10 7 21 11
24 8 2 -3 -4 -12 -15 -20z m66 -5 c0 -5 -2 -10 -4 -10 -3 0 -8 5 -11 10 -3 6
-1 10 4 10 6 0 11 -4 11 -10z m-100 -10 c0 -5 -2 -10 -4 -10 -3 0 -8 5 -11 10
-3 6 -1 10 4 10 6 0 11 -4 11 -10z m74 2 c3 -5 -1 -9 -9 -9 -8 0 -12 4 -9 9 3
4 7 8 9 8 2 0 6 -4 9 -8z m-67 -68 c-3 -3 -12 -4 -19 -1 -8 3 -5 6 6 6 11 1
17 -2 13 -5z m1128 -12 c-3 -3 -11 0 -18 7 -9 10 -8 11 6 5 10 -3 15 -9 12
-12z"/>
<path d="M6815 2781 c-3 -5 -1 -12 5 -16 5 -3 10 1 10 9 0 18 -6 21 -15 7z"/>
<path d="M6685 2580 c3 -5 8 -10 11 -10 2 0 4 5 4 10 0 6 -5 10 -11 10 -5 0
-7 -4 -4 -10z"/>
<path d="M3300 3341 c-15 -29 -12 -56 8 -81 17 -21 17 -21 444 -20 234 0 444
-2 467 -6 l41 -7 0 -62 c0 -55 -3 -63 -21 -68 -11 -3 -214 -5 -450 -4 l-430 2
6 -40 c4 -22 9 -53 11 -68 2 -15 16 -116 29 -224 14 -108 30 -228 36 -265 6
-38 8 -75 5 -83 -3 -8 -1 -17 4 -20 6 -4 10 -21 10 -38 l-1 -32 -15 25 -15 25
5 -25 c3 -14 6 -29 6 -34 0 -4 7 -6 15 -2 10 3 15 -1 15 -13 0 -22 -23 -44
-35 -33 -5 4 -5 1 -1 -5 4 -7 14 -13 22 -13 8 0 12 5 9 10 -3 6 -1 10 5 10 5
0 9 -13 8 -30 -2 -25 -6 -28 -24 -24 -12 3 -25 1 -29 -5 -7 -12 -25 -5 -25 9
0 5 6 7 14 4 8 -3 17 0 22 7 4 7 3 10 -4 5 -6 -3 -20 4 -32 16 l-21 23 6 -32
c3 -20 1 -33 -5 -33 -5 0 -10 -5 -10 -11 0 -8 4 -8 14 0 11 9 15 8 20 -5 9
-24 8 -27 -10 -20 -8 3 -12 2 -9 -4 3 -6 30 -11 58 -11 33 -1 41 -4 23 -6 -17
-3 -49 -2 -72 2 -37 5 -41 9 -37 28 4 21 4 21 -11 3 -13 -16 -20 -18 -41 -8
-17 8 -25 20 -25 36 0 26 -24 51 -40 41 -5 -3 -10 1 -10 9 0 9 -4 16 -10 16
-16 0 -12 -13 19 -61 33 -52 76 -93 146 -141 53 -36 127 -64 142 -55 5 3 15 2
23 -3 8 -5 22 -5 32 1 10 5 18 6 18 2 0 -10 137 -10 146 0 3 3 18 0 32 -6 20
-9 26 -9 30 1 2 8 9 9 23 2 10 -6 19 -8 19 -5 0 3 10 1 21 -6 15 -8 19 -8 15
0 -5 7 3 11 19 11 17 0 24 -4 19 -12 -5 -8 -3 -8 7 -2 20 13 171 14 187 2 8
-7 12 -7 12 2 0 8 12 10 40 6 25 -3 39 -2 35 4 -3 5 0 7 8 4 8 -3 18 0 22 5 3
6 11 9 16 5 23 -14 70 -13 76 2 3 9 12 12 25 8 15 -4 18 -3 13 7 -6 9 -4 11 8
6 11 -4 14 -2 10 9 -4 10 0 12 11 8 9 -3 16 -1 16 5 0 6 7 11 16 11 8 0 12 5
9 10 -3 6 -1 10 5 10 6 0 8 5 4 12 -5 7 -3 8 5 4 15 -10 42 24 35 43 -2 8 1
18 8 23 11 6 10 10 0 17 -10 6 -8 10 10 15 21 6 21 7 6 17 -16 9 -17 13 -3 46
11 27 12 39 4 49 -6 8 -9 21 -5 29 3 8 0 15 -7 15 -7 1 -1 10 12 20 13 11 19
20 15 20 -5 0 -14 11 -21 25 -6 14 -7 23 -2 19 5 -3 9 -1 9 5 0 5 -6 12 -12
14 -10 4 -10 6 0 6 7 1 10 6 7 11 -3 6 -1 10 5 10 7 0 8 6 2 18 -5 9 -8 28 -7
42 1 14 -2 33 -7 43 -5 10 -5 17 1 17 6 0 8 28 6 68 -2 37 -5 99 -6 139 -2 40
-6 70 -11 67 -4 -3 -4 5 1 18 10 30 6 80 -10 110 -11 21 -11 22 4 10 14 -12
15 -10 7 19 -6 20 -6 37 0 44 6 8 5 18 -5 31 -8 10 -14 24 -15 29 0 6 5 3 11
-5 9 -12 10 -11 4 5 -7 21 -9 28 -23 85 -5 19 -16 48 -24 64 -15 28 -15 27
-14 -37 l1 -66 -27 26 c-21 20 -28 36 -28 63 0 20 -5 41 -12 48 -9 9 -140 12
-530 12 -501 0 -518 -1 -528 -19z m570 -321 c9 -6 20 -5 30 3 10 8 9 5 -3 -9
-19 -22 -14 -36 10 -27 9 4 14 0 13 -8 -5 -36 0 -51 17 -45 14 6 14 3 -3 -15
-18 -22 -18 -22 0 -15 16 5 17 4 6 -9 -10 -13 -9 -15 9 -15 20 0 21 -1 7 -16
-20 -20 -20 -25 1 -17 10 4 14 2 9 -5 -3 -6 -2 -13 4 -17 17 -10 11 -25 -7
-18 -10 4 -14 2 -10 -4 4 -6 1 -13 -5 -16 -7 -2 21 -5 62 -6 92 -2 110 -7 110
-32 0 -16 -7 -19 -54 -19 -74 0 -83 -5 -79 -43 2 -18 0 -26 -3 -19 -3 6 -10 9
-15 6 -6 -3 -5 -12 3 -22 10 -12 10 -14 1 -8 -7 4 -13 2 -13 -3 0 -6 6 -11 13
-12 6 0 3 -4 -8 -9 -11 -5 -15 -9 -8 -9 7 -1 10 -8 7 -16 -4 -8 -1 -15 6 -15
6 0 8 -5 5 -10 -4 -6 -11 -8 -16 -5 -5 4 -9 -1 -9 -10 0 -11 5 -15 15 -11 8 3
15 1 15 -4 0 -6 -4 -10 -10 -10 -5 0 -10 -7 -10 -16 0 -8 -4 -13 -8 -10 -4 2
-14 0 -22 -6 -13 -8 -12 -9 1 -5 13 4 18 -2 21 -22 4 -24 1 -27 -21 -25 -15 2
-18 1 -8 -2 21 -7 23 -24 2 -24 -9 0 -15 -6 -13 -14 2 -8 -5 -21 -16 -29 -16
-12 -16 -14 -2 -14 9 0 16 4 16 8 0 4 6 9 14 12 9 4 14 -3 14 -20 0 -15 -3
-20 -8 -13 -6 9 -12 9 -29 -1 -24 -16 -28 -31 -6 -23 11 5 13 2 9 -10 -5 -12
-2 -15 12 -10 17 6 18 6 3 -7 -10 -8 -20 -24 -24 -36 -5 -18 -2 -23 11 -23 10
0 15 -2 12 -5 -10 -10 -328 -18 -328 -8 0 5 -9 59 -20 119 -10 60 -26 163 -34
229 -26 202 -35 271 -46 337 -5 35 -10 75 -10 91 l0 27 188 0 c103 0 194 -4
202 -10z m631 -713 c-10 -9 -11 -8 -5 6 3 10 9 15 12 12 3 -3 0 -11 -7 -18z
m-1234 -90 c4 -21 3 -21 -11 -2 -8 11 -12 24 -9 28 7 12 16 0 20 -26z m207
-23 c9 -3 16 -10 16 -15 0 -5 -9 -4 -20 3 -17 11 -22 10 -30 -2 -5 -8 -10 -10
-10 -4 0 22 16 29 44 18z m996 -44 c0 -5 -4 -10 -10 -10 -5 0 -10 5 -10 10 0
6 5 10 10 10 6 0 10 -4 10 -10z"/>
<path d="M3870 2295 c0 -8 5 -15 10 -15 6 0 10 7 10 15 0 8 -4 15 -10 15 -5 0
-10 -7 -10 -15z"/>
<path d="M6980 3309 c0 -5 5 -7 10 -4 6 3 10 8 10 11 0 2 -4 4 -10 4 -5 0 -10
-5 -10 -11z"/>
<path d="M7040 3259 c0 -5 5 -7 10 -4 6 3 10 8 10 11 0 2 -4 4 -10 4 -5 0 -10
-5 -10 -11z"/>
<path d="M7020 3229 c0 -5 5 -7 10 -4 6 3 10 8 10 11 0 2 -4 4 -10 4 -5 0 -10
-5 -10 -11z"/>
<path d="M6980 3169 c0 -5 -4 -7 -10 -4 -5 3 -10 2 -10 -3 0 -17 13 -21 26 -7
16 16 18 25 4 25 -5 0 -10 -5 -10 -11z"/>
<path d="M5088 3130 c-91 -28 -150 -105 -152 -195 -1 -70 41 -140 101 -169
l42 -21 1 -129 0 -129 -34 6 c-50 8 -157 62 -206 104 -36 31 -41 33 -30 12 25
-46 127 -134 196 -169 l69 -35 5 -134 c5 -131 6 -134 32 -154 15 -11 40 -21
57 -22 26 -2 30 2 41 39 14 53 18 126 7 133 -5 3 -4 8 1 12 6 4 12 28 13 55 3
56 19 76 60 76 16 0 29 3 29 8 0 4 14 8 31 9 17 1 37 7 44 13 6 5 15 7 19 2 4
-4 12 1 17 11 6 9 14 15 19 12 4 -3 15 7 24 20 9 14 21 23 26 20 11 -7 32 30
22 39 -3 4 2 4 13 0 18 -7 19 -6 5 11 -9 11 -10 16 -2 11 7 -4 12 -2 12 4 0 6
4 8 10 5 6 -4 7 1 3 11 -5 12 -3 15 6 9 10 -6 11 -3 1 15 -8 15 -8 20 -1 16 6
-4 12 -2 12 3 3 21 4 26 12 39 5 6 5 17 2 22 -3 6 2 10 12 11 11 0 13 3 5 6
-6 2 -10 8 -7 13 3 4 6 28 6 53 1 26 6 44 12 40 5 -3 4 5 -3 17 -6 12 -13 44
-15 71 -2 30 -18 79 -40 125 -38 80 -60 95 -30 22 20 -48 27 -157 10 -159 -5
-1 -17 0 -25 1 -10 1 -7 -5 8 -18 12 -11 22 -22 22 -26 0 -4 -10 -1 -22 5 -21
11 -22 11 -8 -6 13 -16 13 -19 -8 -33 -12 -8 -22 -24 -22 -36 0 -16 -2 -18 -9
-7 -5 8 -7 21 -4 30 4 13 3 13 -5 2 -6 -8 -8 -20 -5 -28 3 -7 0 -13 -7 -13 -6
0 -9 -4 -6 -9 11 -17 -5 -40 -25 -36 -10 2 -21 0 -24 -6 -8 -13 -35 -11 -35 2
0 6 7 9 15 5 21 -8 39 28 21 43 -7 6 -16 8 -20 4 -4 -4 -4 1 0 11 7 18 8 18
21 0 7 -10 13 -14 13 -8 -1 12 -30 50 -30 38 0 -5 -4 -2 -10 6 -6 9 -5 17 3
22 9 6 9 8 0 8 -7 0 -13 12 -13 26 0 39 -58 168 -90 203 -53 55 -133 80 -192
61z m115 -131 c40 -43 37 -91 -7 -135 -19 -19 -41 -34 -49 -34 -50 0 -117 55
-117 97 0 62 64 119 120 107 14 -2 37 -18 53 -35z m190 -332 c7 -18 -9 -44
-20 -33 -4 5 -2 11 5 13 10 4 10 8 1 19 -7 8 -7 14 -1 14 5 0 12 -6 15 -13z
m-33 -23 c0 -19 -4 -25 -15 -20 -9 3 -15 0 -15 -9 0 -8 6 -15 13 -16 6 0 2 -4
-10 -9 -14 -6 -21 -15 -17 -24 4 -10 -2 -17 -19 -21 -15 -4 -24 -12 -21 -20 5
-12 -43 -31 -53 -21 -3 2 -2 38 2 79 l7 74 31 1 c17 0 38 -3 48 -8 12 -7 21
-5 29 5 17 21 20 19 20 -11z"/>
<path d="M5465 2830 c-3 -5 -1 -10 4 -10 6 0 11 5 11 10 0 6 -2 10 -4 10 -3 0
-8 -4 -11 -10z"/>
<path d="M5495 2830 c-3 -5 1 -10 9 -10 9 0 16 5 16 10 0 6 -4 10 -9 10 -6 0
-13 -4 -16 -10z"/>
<path d="M6008 2563 c7 -3 16 -2 19 1 4 3 -2 6 -13 5 -11 0 -14 -3 -6 -6z"/>
<path d="M6040 2550 c-13 -8 -12 -10 3 -10 9 0 17 5 17 10 0 12 -1 12 -20 0z"/>
<path d="M6010 2483 c0 -29 12 -24 17 7 2 11 -2 20 -7 20 -6 0 -10 -12 -10
-27z"/>
<path d="M5964 2468 c-5 -8 -2 -9 9 -5 11 4 17 1 17 -7 0 -8 -10 -16 -21 -19
-20 -5 -20 -7 -5 -22 9 -9 16 -22 16 -28 0 -7 4 -7 13 2 10 10 8 15 -6 25 -15
12 -16 14 -2 20 19 7 20 46 1 46 -8 0 -18 -5 -22 -12z"/>
<path d="M5922 2426 c2 -10 -3 -21 -9 -23 -7 -3 -13 0 -13 6 0 6 -5 11 -12 11
-9 0 -9 -3 0 -12 8 -8 9 -15 1 -25 -7 -8 -8 -13 -1 -13 5 0 15 7 22 15 10 12
16 13 26 4 18 -15 17 -1 -2 31 -11 19 -14 21 -12 6z"/>
<path d="M5851 2368 c-1 -21 15 -32 25 -17 4 7 3 9 -4 5 -6 -3 -13 2 -15 11
-4 16 -5 16 -6 1z"/>
<path d="M5920 2360 c0 -5 5 -10 11 -10 5 0 7 5 4 10 -3 6 -8 10 -11 10 -2 0
-4 -4 -4 -10z"/>
<path d="M5900 2345 c0 -8 4 -15 10 -15 5 0 7 7 4 15 -4 8 -8 15 -10 15 -2 0
-4 -7 -4 -15z"/>
<path d="M3350 2342 c0 -12 19 -26 26 -19 2 2 -2 10 -11 17 -9 8 -15 8 -15 2z"/>
<path d="M5820 2339 c0 -5 5 -7 10 -4 6 3 10 8 10 11 0 2 -4 4 -10 4 -5 0 -10
-5 -10 -11z"/>
<path d="M3288 2333 c7 -3 16 -2 19 1 4 3 -2 6 -13 5 -11 0 -14 -3 -6 -6z"/>
<path d="M3404 2310 c0 -13 4 -16 10 -10 7 7 7 13 0 20 -6 6 -10 3 -10 -10z"/>
<path d="M5866 2313 c-4 -9 -2 -21 4 -27 7 -7 11 -7 10 -1 -5 23 1 36 12 29 7
-4 8 -3 4 4 -10 17 -23 15 -30 -5z"/>
<path d="M3425 2290 c-3 -5 -1 -10 4 -10 6 0 11 5 11 10 0 6 -2 10 -4 10 -3 0
-8 -4 -11 -10z"/>
<path d="M3325 2240 c-3 -5 1 -10 9 -10 9 0 16 5 16 10 0 6 -4 10 -9 10 -6 0
-13 -4 -16 -10z"/>
<path d="M3320 2204 c0 -14 3 -14 15 -4 8 7 15 14 15 16 0 2 -7 4 -15 4 -8 0
-15 -7 -15 -16z"/>
<path d="M3295 2200 c3 -5 8 -10 11 -10 2 0 4 5 4 10 0 6 -5 10 -11 10 -5 0
-7 -4 -4 -10z"/>
</g>
</svg>
